<?xml version="1.0" encoding="UTF-8"?>
<svg id="Layer_2" data-name="Layer 2" xmlns="http://www.w3.org/2000/svg" viewBox="0 0 1834 1833.7">
  <defs>
    <style>
      .cls-1 {
        fill: #a855f7;
        stroke-width: 0px;
      }
    </style>
  </defs>
  <g id="Layer_1-2" data-name="Layer 1">
    <g>
      <path class="cls-1" d="m0,916.7c0,506.5,410.5,917,917,917s917-410.1,917-916.7S1423.5,0,917,0C410.8.1,0,410.2,0,916.7Zm131.3.4c0-434,351.7-785.7,785.7-785.7s785.7,351.7,785.7,785.7-351.7,785.7-785.7,785.7S131.3,1351,131.3,917.1Z"/>
      <path class="cls-1" d="m1265.6,809.6h-106.8v578.7c.3,34.9-34.6,21.8-34.6,21.8l-111.6-39.4c-17.6-7.6-14.2-23.5-14.2-23.5v-536.6h-121.5v583.9c-1,27.3-28,16.2-28,16.2l-121.6-43.2c-10.7-5.9-9-14.9-9-14.9l1.7-539.7-116.8-3.1c-145.8-2.1-150-160.7-150-160.7v-87.8h157.6v90.9h661.3c144.8,2.1,151,156.2,151,156.2v111.6h-156.9l-.6-110.4Z"/>
    </g>
  </g>
</svg>