<svg
xmlns="http://www.w3.org/2000/svg" width="24" height="24" viewBox="0 0 24 24" fill="none"
>
  <clipPath id="clip0_177_5257">
    <path d="M0 0H24V24H0Z" />
  </clipPath>
  <g clip-path="url(#clip0_177_5257)" stroke="#a855f7">
    <path d="M4.6715 6.6279C4.85916 5.12661 6.13536 4 7.64833 4H16.3516C17.8646 4 19.1408 5.12661 19.3285 6.6279L20.5785 16.6279C20.8023 18.4185 19.4061 20 17.6016 20H6.39833C4.59384 20 3.19768 18.4185 3.4215 16.6279L4.6715 6.6279Z" />
    <path
      d="M9 9C9 9.79565 9.31607 10.5587 9.87868 11.1213C10.4413 11.6839 11.2044 12 12 12C12.7957 12 13.5587 11.6839 14.1213 11.1213C14.6839 10.5587 15 9.79565 15 9"
      stroke-linecap="round"
      stroke-linejoin="round"
    />
  </g>
</svg>